<svg width="415" height="99" viewBox="0 0 415 99" fill="none" xmlns="http://www.w3.org/2000/svg">
<rect x="1.5" y="1.5" width="412" height="96" stroke="#FF9501" stroke-width="3" stroke-linejoin="bevel" stroke-dasharray="20 20"/>
<path d="M42.43 67.77L32.31 35.375L28.845 34.715V31.36H46.5V35.155L42.045 35.76L47.215 55.45L47.71 58.035H48.205L48.92 55.45L55.575 36.695L55.19 35.76L51.23 35.1V31.36H68.665V35.155L64.1 35.76L71.965 55.945L72.57 58.475H73.065L73.56 55.89L78.345 35.76L73.175 35.155V31.36H88.08V34.99L84.505 35.595L75.54 67.77H67.62L59.26 47.145L58.71 44.67H58.27L57.72 47.145L50.075 67.77H42.43ZM102.218 67.715C99.5418 67.715 97.1768 67.3483 95.1234 66.615C93.0701 65.845 91.4568 64.4517 90.2834 62.435C89.1101 60.4183 88.5234 57.54 88.5234 53.8C88.5234 50.61 89.0918 47.915 90.2284 45.715C91.3651 43.4783 92.9234 41.7917 94.9034 40.655C96.9201 39.4817 99.2118 38.895 101.778 38.895C104.125 38.895 106.05 39.2617 107.553 39.995C109.057 40.6917 110.212 41.6267 111.018 42.8C111.862 43.9367 112.43 45.165 112.723 46.485C113.053 47.805 113.218 49.0883 113.218 50.335C113.218 52.205 112.998 53.4333 112.558 54.02C112.118 54.57 111.495 54.845 110.688 54.845H97.3234C97.3601 56.5683 97.5801 58.0167 97.9834 59.19C98.3868 60.3267 99.0834 61.17 100.073 61.72C101.063 62.27 102.402 62.545 104.088 62.545C106.435 62.545 108.195 62.3433 109.368 61.94C110.542 61.5367 111.202 61.2983 111.348 61.225L112.503 63.81C112.357 63.9567 111.843 64.36 110.963 65.02C110.12 65.6433 108.965 66.2483 107.498 66.835C106.032 67.4217 104.272 67.715 102.218 67.715ZM97.2684 50.885L104.528 50.445C104.638 49.785 104.693 49.235 104.693 48.795C104.693 47.0717 104.51 45.8433 104.143 45.11C103.777 44.34 102.933 43.955 101.613 43.955C100.403 43.955 99.4868 44.285 98.8634 44.945C98.2768 45.5683 97.8734 46.4117 97.6534 47.475C97.4701 48.5017 97.3418 49.6383 97.2684 50.885ZM123.339 67V63.7L126.914 62.93L137.969 30.92H145.889L157.439 62.71L161.344 63.7V67H143.194V63.7L148.089 62.875L146.274 57.21H135.274L133.349 62.82L138.299 63.7V67H123.339ZM136.924 52.37H144.734L141.544 41.535L141.159 39.225H140.719L140.279 41.535L136.924 52.37ZM161.563 67V63.7L166.073 62.93V45L161.728 44.065V40.6L171.848 38.95L174.048 42.47C174.634 41.9567 175.313 41.425 176.083 40.875C176.853 40.325 177.623 39.8667 178.393 39.5C179.199 39.0967 179.896 38.895 180.483 38.895C181.473 38.895 182.261 39.1333 182.848 39.61C183.434 40.05 183.728 40.9117 183.728 42.195C183.728 42.9283 183.544 43.735 183.178 44.615C182.848 45.4583 182.408 46.1733 181.858 46.76L177.293 45.33C176.889 45.1833 176.523 45.0733 176.193 45C175.899 44.9267 175.643 44.89 175.423 44.89C175.166 44.89 174.946 44.9267 174.763 45C174.616 45.0733 174.451 45.1467 174.268 45.22V62.765L180.648 63.7V67H161.563ZM198.791 67.715C196.114 67.715 193.749 67.3483 191.696 66.615C189.642 65.845 188.029 64.4517 186.856 62.435C185.682 60.4183 185.096 57.54 185.096 53.8C185.096 50.61 185.664 47.915 186.801 45.715C187.937 43.4783 189.496 41.7917 191.476 40.655C193.492 39.4817 195.784 38.895 198.351 38.895C200.697 38.895 202.622 39.2617 204.126 39.995C205.629 40.6917 206.784 41.6267 207.591 42.8C208.434 43.9367 209.002 45.165 209.296 46.485C209.626 47.805 209.791 49.0883 209.791 50.335C209.791 52.205 209.571 53.4333 209.131 54.02C208.691 54.57 208.067 54.845 207.261 54.845H193.896C193.932 56.5683 194.152 58.0167 194.556 59.19C194.959 60.3267 195.656 61.17 196.646 61.72C197.636 62.27 198.974 62.545 200.661 62.545C203.007 62.545 204.767 62.3433 205.941 61.94C207.114 61.5367 207.774 61.2983 207.921 61.225L209.076 63.81C208.929 63.9567 208.416 64.36 207.536 65.02C206.692 65.6433 205.537 66.2483 204.071 66.835C202.604 67.4217 200.844 67.715 198.791 67.715ZM193.841 50.885L201.101 50.445C201.211 49.785 201.266 49.235 201.266 48.795C201.266 47.0717 201.082 45.8433 200.716 45.11C200.349 44.34 199.506 43.955 198.186 43.955C196.976 43.955 196.059 44.285 195.436 44.945C194.849 45.5683 194.446 46.4117 194.226 47.475C194.042 48.5017 193.914 49.6383 193.841 50.885ZM221.892 67V63.7L226.237 62.6V35.76L221.892 34.66V31.36H237.347C242.773 31.36 246.697 32.1117 249.117 33.615C251.573 35.0817 252.802 37.465 252.802 40.765C252.802 41.9383 252.398 43.2033 251.592 44.56C250.785 45.9167 249.355 47.09 247.302 48.08C248.732 48.52 249.942 49.1433 250.932 49.95C251.922 50.7567 252.673 51.6917 253.187 52.755C253.7 53.7817 253.957 54.9183 253.957 56.165C253.957 59.685 252.783 62.38 250.437 64.25C248.127 66.0833 244.863 67 240.647 67H221.892ZM236.082 62.435C239.198 62.435 241.398 61.995 242.682 61.115C243.965 60.235 244.607 58.75 244.607 56.66C244.607 54.8267 244.112 53.47 243.122 52.59C242.132 51.6733 240.28 51.215 237.567 51.215H235.092V62.435C235.275 62.435 235.44 62.435 235.587 62.435C235.77 62.435 235.935 62.435 236.082 62.435ZM235.092 46.65H237.787C239.84 46.65 241.288 46.1917 242.132 45.275C243.012 44.3217 243.452 43.02 243.452 41.37C243.452 37.7033 241.563 35.87 237.787 35.87C237.31 35.87 236.815 35.8883 236.302 35.925C235.788 35.9617 235.385 36.0167 235.092 36.09V46.65ZM256.782 67V63.7L261.127 62.93V34.275L256.617 33.34V29.82L267.012 28.555L269.322 29.435V62.93L273.007 63.7V67H256.782ZM288.368 67.88C285.068 67.88 282.446 67.33 280.503 66.23C278.596 65.0933 277.239 63.48 276.433 61.39C275.626 59.2633 275.223 56.7333 275.223 53.8C275.223 51.93 275.461 50.0967 275.938 48.3C276.451 46.5033 277.258 44.89 278.358 43.46C279.494 42.03 280.998 40.8933 282.868 40.05C284.738 39.2067 287.029 38.785 289.743 38.785C292.786 38.785 295.224 39.3717 297.058 40.545C298.891 41.7183 300.211 43.35 301.018 45.44C301.861 47.4933 302.283 49.8583 302.283 52.535C302.283 54.4417 302.063 56.3117 301.623 58.145C301.219 59.9783 300.486 61.6283 299.423 63.095C298.396 64.5617 296.984 65.735 295.188 66.615C293.391 67.4583 291.118 67.88 288.368 67.88ZM289.248 63.04C290.678 63.04 291.686 62.5633 292.273 61.61C292.859 60.6567 293.208 59.4283 293.318 57.925C293.464 56.385 293.538 54.79 293.538 53.14C293.538 50.83 293.428 48.9783 293.208 47.585C293.024 46.1917 292.603 45.1833 291.943 44.56C291.319 43.9 290.348 43.57 289.028 43.57C287.561 43.57 286.461 43.9 285.728 44.56C285.031 45.1833 284.573 46.1917 284.353 47.585C284.133 48.9783 284.023 50.83 284.023 53.14C284.023 55.34 284.114 57.1733 284.298 58.64C284.481 60.1067 284.939 61.2067 285.673 61.94C286.443 62.6733 287.634 63.04 289.248 63.04ZM318.124 67.88C314.824 67.88 312.202 67.33 310.259 66.23C308.352 65.0933 306.995 63.48 306.189 61.39C305.382 59.2633 304.979 56.7333 304.979 53.8C304.979 51.93 305.217 50.0967 305.694 48.3C306.207 46.5033 307.014 44.89 308.114 43.46C309.25 42.03 310.754 40.8933 312.624 40.05C314.494 39.2067 316.785 38.785 319.499 38.785C322.542 38.785 324.98 39.3717 326.814 40.545C328.647 41.7183 329.967 43.35 330.774 45.44C331.617 47.4933 332.039 49.8583 332.039 52.535C332.039 54.4417 331.819 56.3117 331.379 58.145C330.975 59.9783 330.242 61.6283 329.179 63.095C328.152 64.5617 326.74 65.735 324.944 66.615C323.147 67.4583 320.874 67.88 318.124 67.88ZM319.004 63.04C320.434 63.04 321.442 62.5633 322.029 61.61C322.615 60.6567 322.964 59.4283 323.074 57.925C323.22 56.385 323.294 54.79 323.294 53.14C323.294 50.83 323.184 48.9783 322.964 47.585C322.78 46.1917 322.359 45.1833 321.699 44.56C321.075 43.9 320.104 43.57 318.784 43.57C317.317 43.57 316.217 43.9 315.484 44.56C314.787 45.1833 314.329 46.1917 314.109 47.585C313.889 48.9783 313.779 50.83 313.779 53.14C313.779 55.34 313.87 57.1733 314.054 58.64C314.237 60.1067 314.695 61.2067 315.429 61.94C316.199 62.6733 317.39 63.04 319.004 63.04ZM334.569 67V63.7L338.859 62.93V44.56L334.404 43.68V40.105L344.854 38.95L346.669 41.645C348.063 40.8017 349.493 40.1417 350.959 39.665C352.426 39.1517 353.893 38.895 355.359 38.895C357.119 38.895 358.549 39.1517 359.649 39.665C360.786 40.1417 361.684 40.9117 362.344 41.975C363.004 41.425 363.884 40.9117 364.984 40.435C366.121 39.9217 367.313 39.5183 368.559 39.225C369.806 38.9317 370.888 38.785 371.804 38.785C374.628 38.785 376.681 39.4267 377.964 40.71C379.284 41.9933 379.944 44.0467 379.944 46.87V62.93L383.794 63.7V67H368.284V63.7L371.639 62.93V48.52C371.639 46.6867 371.383 45.4767 370.869 44.89C370.356 44.2667 369.293 43.955 367.679 43.955C366.983 43.955 366.176 44.01 365.259 44.12C364.379 44.23 363.683 44.3767 363.169 44.56C363.316 45 363.408 45.4767 363.444 45.99C363.481 46.5033 363.499 46.9617 363.499 47.365V62.93L366.909 63.7V67H351.729V63.7L355.249 62.93V48.52C355.249 46.6867 354.974 45.4767 354.424 44.89C353.911 44.2667 352.848 43.955 351.234 43.955C350.648 43.955 350.006 44.01 349.309 44.12C348.613 44.1933 347.861 44.34 347.054 44.56V62.93L350.464 63.7V67H334.569Z" fill="white"/>
</svg>
